<?xml version="1.0" encoding="UTF-8"?> <svg xmlns="http://www.w3.org/2000/svg" xmlns:xlink="http://www.w3.org/1999/xlink" class="marks" width="609" height="384" viewBox="0 0 609 384"><g transform="translate(86,14)"><g class="mark-group role-frame root"><g transform="translate(0,0)"><path class="background" d="M0.5,0.5h400v300h-400Z" style="fill: none; stroke: #ddd;"></path><g><g class="mark-group role-axis"><g transform="translate(0.5,300.5)"><path class="background" d="M0,0h0v0h0Z" style="pointer-events: none; fill: none;"></path><g><g class="mark-rule role-axis-grid" style="pointer-events: none;"><line transform="translate(0,-300)" x2="0" y2="300" style="fill: none; stroke: #ddd; stroke-width: 1; opacity: 1;"></line><line transform="translate(27,-300)" x2="0" y2="300" style="fill: none; stroke: #ddd; stroke-width: 1; opacity: 1;"></line><line transform="translate(53,-300)" x2="0" y2="300" style="fill: none; stroke: #ddd; stroke-width: 1; opacity: 1;"></line><line transform="translate(80,-300)" x2="0" y2="300" style="fill: none; stroke: #ddd; stroke-width: 1; opacity: 1;"></line><line transform="translate(107,-300)" x2="0" y2="300" style="fill: none; stroke: #ddd; stroke-width: 1; opacity: 1;"></line><line transform="translate(133,-300)" x2="0" y2="300" style="fill: none; stroke: #ddd; stroke-width: 1; opacity: 1;"></line><line transform="translate(160,-300)" x2="0" y2="300" style="fill: none; stroke: #ddd; stroke-width: 1; opacity: 1;"></line><line transform="translate(187,-300)" x2="0" y2="300" style="fill: none; stroke: #ddd; stroke-width: 1; opacity: 1;"></line><line transform="translate(213,-300)" x2="0" y2="300" style="fill: none; stroke: #ddd; stroke-width: 1; opacity: 1;"></line><line transform="translate(240,-300)" x2="0" y2="300" style="fill: none; stroke: #ddd; stroke-width: 1; opacity: 1;"></line><line transform="translate(267,-300)" x2="0" y2="300" style="fill: none; stroke: #ddd; stroke-width: 1; opacity: 1;"></line><line transform="translate(293,-300)" x2="0" y2="300" style="fill: none; stroke: #ddd; stroke-width: 1; opacity: 1;"></line><line transform="translate(320,-300)" x2="0" y2="300" style="fill: none; stroke: #ddd; stroke-width: 1; opacity: 1;"></line><line transform="translate(347,-300)" x2="0" y2="300" style="fill: none; stroke: #ddd; stroke-width: 1; opacity: 1;"></line><line transform="translate(373,-300)" x2="0" y2="300" style="fill: none; stroke: #ddd; stroke-width: 1; opacity: 1;"></line><line transform="translate(400,-300)" x2="0" y2="300" style="fill: none; stroke: #ddd; stroke-width: 1; opacity: 1;"></line></g></g></g></g><g class="mark-group role-axis"><g transform="translate(0.5,0.5)"><path class="background" d="M0,0h0v0h0Z" style="pointer-events: none; fill: none;"></path><g><g class="mark-rule role-axis-grid" style="pointer-events: none;"><line transform="translate(0,300)" x2="400" y2="0" style="fill: none; stroke: #ddd; stroke-width: 1; opacity: 1;"></line><line transform="translate(0,267)" x2="400" y2="0" style="fill: none; stroke: #ddd; stroke-width: 1; opacity: 1;"></line><line transform="translate(0,233)" x2="400" y2="0" style="fill: none; stroke: #ddd; stroke-width: 1; opacity: 1;"></line><line transform="translate(0,200)" x2="400" y2="0" style="fill: none; stroke: #ddd; stroke-width: 1; opacity: 1;"></line><line transform="translate(0,167)" x2="400" y2="0" style="fill: none; stroke: #ddd; stroke-width: 1; opacity: 1;"></line><line transform="translate(0,133)" x2="400" y2="0" style="fill: none; stroke: #ddd; stroke-width: 1; opacity: 1;"></line><line transform="translate(0,100)" x2="400" y2="0" style="fill: none; stroke: #ddd; stroke-width: 1; opacity: 1;"></line><line transform="translate(0,67)" x2="400" y2="0" style="fill: none; stroke: #ddd; stroke-width: 1; opacity: 1;"></line><line transform="translate(0,33)" x2="400" y2="0" style="fill: none; stroke: #ddd; stroke-width: 1; opacity: 1;"></line><line transform="translate(0,0)" x2="400" y2="0" style="fill: none; stroke: #ddd; stroke-width: 1; opacity: 1;"></line></g></g></g></g><g class="mark-group role-scope pathgroup"><g transform="translate(0,0)"><path class="background" d="M0,0h400v300h-400Z" style="fill: none;"></path><g><g class="mark-line role-mark marks"><path d="M400,300L398.6666666666667,298.78787878787887L397.33333333333337,297.5757575757576L396.00000000000006,296.36363636363643L394.6666666666667,295.1515151515152L393.3333333333333,293.939393939394L392.00000000000006,292.7272727272728L390.6666666666667,291.51515151515156L389.33333333333337,290.30303030303037L388.00000000000006,289.0909090909091L386.6666666666667,287.87878787878793L385.33333333333337,286.66666666666674L384.00000000000006,285.4545454545455L382.6666666666667,284.2424242424243L381.33333333333337,283.03030303030306L380,281.81818181818187L378.6666666666667,280.6060606060607L377.33333333333337,279.39393939393943L376,278.18181818181824L374.6666666666667,276.969696969697L373.3333333333333,275.7575757575758L372,274.5454545454546L370.66666666666663,273.33333333333337L369.33333333333337,272.1212121212122L368,270.90909090909093L366.66666666666663,269.69696969696975L365.33333333333337,268.48484848484856L364,267.2727272727273L362.6666666666667,266.0606060606061L361.33333333333337,264.8484848484849L360,263.6363636363637L358.6666666666667,262.4242424242425L357.3333333333333,261.21212121212125L356.00000000000006,260.00000000000006L354.6666666666667,258.7878787878788L353.3333333333333,257.5757575757576L352.00000000000006,256.36363636363643L350.6666666666667,255.15151515151516L349.33333333333337,253.93939393939397L348,252.72727272727275L346.6666666666667,251.51515151515153L345.33333333333337,250.30303030303037L344,249.09090909090912L342.66666666666674,247.87878787878793L341.33333333333337,246.66666666666669L340,245.45454545454547L338.66666666666674,244.2424242424243L337.33333333333337,243.03030303030306L336.00000000000006,241.81818181818184L334.6666666666667,240.60606060606062L333.33333333333337,239.3939393939394L332,238.18181818181824L330.6666666666667,236.969696969697L329.33333333333337,235.7575757575758L328,234.54545454545456L326.6666666666667,233.33333333333337L325.3333333333333,232.12121212121218L324,230.90909090909093L322.6666666666667,229.69696969696975L321.3333333333333,228.4848484848485L320,227.27272727272728L318.6666666666667,226.06060606060612L317.3333333333333,224.84848484848487L316.00000000000006,223.63636363636368L314.6666666666667,222.42424242424244L313.3333333333333,221.21212121212122L312,220.00000000000003L310.6666666666667,218.7878787878788L309.33333333333337,217.57575757575765L308,216.36363636363637L306.6666666666667,215.15151515151516L305.33333333333337,213.939393939394L304,212.72727272727275L302.6666666666667,211.51515151515156L301.33333333333337,210.3030303030303L300,209.09090909090912L298.6666666666667,207.87878787878793L297.33333333333337,206.66666666666669L296.00000000000006,205.4545454545455L294.6666666666667,204.24242424242425L293.3333333333333,203.03030303030306L292.00000000000006,201.81818181818187L290.6666666666667,200.60606060606062L289.33333333333337,199.39393939393943L288.00000000000006,198.18181818181822L286.6666666666667,196.96969696969697L285.33333333333337,195.75757575757578L284.00000000000006,194.54545454545456L282.6666666666667,193.33333333333337L281.33333333333337,192.12121212121212L280,190.9090909090909L278.6666666666667,189.69696969696975L277.33333333333337,188.4848484848485L276,187.2727272727273L274.6666666666667,186.0606060606061L273.3333333333333,184.84848484848487L272,183.63636363636368L270.66666666666663,182.42424242424244L269.33333333333337,181.21212121212125L268,180.00000000000003L266.66666666666663,178.7878787878788L265.33333333333337,177.57575757575762L264,176.36363636363637L262.6666666666667,175.15151515151518L261.33333333333337,173.93939393939397L260,172.72727272727275L258.6666666666667,171.51515151515153L257.3333333333333,170.3030303030303L256.00000000000006,169.09090909090915L254.66666666666669,167.8787878787879L253.33333333333331,166.66666666666669L252.00000000000006,165.4545454545455L250.66666666666669,164.24242424242428L249.33333333333331,163.030303030303L248,161.81818181818184L246.66666666666669,160.60606060606062L245.33333333333337,159.39393939393943L244,158.1818181818182L242.66666666666669,156.96969696969697L241.33333333333334,155.75757575757578L240,154.54545454545456L238.6666666666667,153.33333333333337L237.33333333333334,152.12121212121212L236,150.9090909090909L234.66666666666666,149.69696969696972L233.33333333333334,148.4848484848485L232.00000000000003,147.2727272727273L230.66666666666666,146.06060606060606L229.33333333333334,144.84848484848484L228.00000000000003,143.63636363636365L226.66666666666666,142.42424242424244L225.33333333333334,141.21212121212125L224.00000000000003,140L222.66666666666666,138.78787878787878L221.33333333333334,137.5757575757576L220.00000000000003,136.36363636363637L218.66666666666669,135.15151515151518L217.33333333333334,133.93939393939394L215.99999999999997,132.72727272727272L214.66666666666669,131.51515151515153L213.33333333333334,130.3030303030303L212,129.0909090909091L210.66666666666669,127.87878787878788L209.33333333333331,126.66666666666666L208,125.4545454545455L206.66666666666669,124.24242424242422L205.33333333333331,123.03030303030306L204,121.81818181818184L202.66666666666669,120.60606060606065L201.33333333333337,119.39393939393943L200,118.18181818181822L198.66666666666669,116.969696969697L197.33333333333334,115.75757575757578L196.00000000000003,114.54545454545456L194.66666666666669,113.33333333333337L193.33333333333334,112.12121212121212L192.00000000000003,110.90909090909093L190.66666666666669,109.69696969696972L189.33333333333334,108.48484848484853L188,107.27272727272731L186.66666666666666,106.06060606060609L185.33333333333331,104.84848484848484L184,103.63636363636363L182.66666666666669,102.42424242424241L181.33333333333334,101.21212121212122L180,100L178.66666666666666,98.78787878787878L177.33333333333334,97.57575757575756L176.00000000000003,96.36363636363637L174.66666666666669,95.15151515151516L173.33333333333334,93.93939393939394L172,92.72727272727272L170.66666666666669,91.5151515151515L169.33333333333337,90.30303030303031L168.00000000000003,89.0909090909091L166.66666666666669,87.87878787878788L165.33333333333334,86.66666666666666L164,85.45454545454544L162.66666666666666,84.24242424242425L161.33333333333334,83.03030303030303L160,81.81818181818181L158.66666666666666,80.6060606060606L157.33333333333334,79.39393939393938L156,78.18181818181819L154.66666666666669,76.96969696969697L153.33333333333334,75.75757575757575L152,74.54545454545456L150.66666666666669,73.33333333333334L149.33333333333334,72.12121212121215L148.00000000000003,70.90909090909093L146.66666666666666,69.69696969696972L145.33333333333334,68.4848484848485L144.00000000000003,67.27272727272728L142.66666666666669,66.06060606060609L141.33333333333334,64.84848484848487L140,63.636363636363654L138.66666666666669,62.424242424242436L137.33333333333334,61.21212121212125L136,60.00000000000003L134.66666666666669,58.78787878787881L133.33333333333331,57.57575757575759L132,56.363636363636374L130.66666666666669,55.15151515151513L129.33333333333334,53.939393939393966L128.00000000000003,52.72727272727275L126.66666666666666,51.5151515151515L125.33333333333334,50.30303030303028L124,49.09090909090909L122.66666666666669,47.878787878787875L121.33333333333334,46.66666666666666L120,45.45454545454544L118.66666666666667,44.24242424242422L117.33333333333333,43.03030303030306L116.00000000000001,41.81818181818181L114.66666666666667,40.60606060606062L113.33333333333333,39.39393939393938L112.00000000000001,38.18181818181819L110.66666666666667,36.969696969697L109.33333333333334,35.75757575757575L107.99999999999999,34.54545454545456L106.66666666666667,33.333333333333314L105.33333333333334,36.666666666666686L104,39.99999999999994L102.66666666666666,43.33333333333337L101.33333333333334,46.66666666666663L100,50.00000000000003L98.66666666666667,53.333333333333314L97.33333333333334,56.66666666666663L96.00000000000001,60L94.66666666666667,63.333333333333314L93.33333333333333,66.66666666666666L92,69.99999999999997L90.66666666666667,73.33333333333329L89.33333333333333,76.66666666666666L88.00000000000001,79.99999999999994L86.66666666666667,83.33333333333334L85.33333333333334,86.66666666666663L84.00000000000001,89.99999999999997L82.66666666666667,93.33333333333331L81.33333333333333,96.66666666666663L80,99.99999999999997L78.66666666666667,103.33333333333329L77.33333333333334,106.66666666666666L76,109.99999999999997L74.66666666666667,113.33333333333334L73.33333333333333,116.66666666666666L72.00000000000001,120L70.66666666666667,123.33333333333329L69.33333333333334,126.66666666666666L68,129.99999999999997L66.66666666666666,133.33333333333331L65.33333333333334,136.66666666666666L64.00000000000001,139.99999999999997L62.66666666666667,143.33333333333331L61.33333333333334,146.66666666666666L60,150L58.666666666666664,153.33333333333331L57.333333333333336,156.66666666666669L56.00000000000001,160L54.66666666666667,163.33333333333331L53.333333333333336,166.66666666666666L52,169.99999999999997L50.66666666666667,173.33333333333331L49.333333333333336,176.66666666666666L48.00000000000001,180L46.666666666666664,183.33333333333331L45.333333333333336,186.66666666666663L44.00000000000001,189.99999999999997L42.66666666666667,193.33333333333331L41.333333333333336,196.66666666666666L40,200L38.66666666666667,203.33333333333331L37.333333333333336,206.66666666666669L36.00000000000001,210L34.66666666666667,213.33333333333331L33.33333333333333,216.66666666666666L32.00000000000001,220L30.66666666666667,223.33333333333331L29.333333333333332,226.66666666666666L28.000000000000004,230L26.666666666666668,233.33333333333331L25.333333333333336,236.66666666666666L24.000000000000004,240L22.666666666666668,243.33333333333331L21.333333333333336,246.66666666666666L20,250L18.666666666666668,253.33333333333334L17.333333333333336,256.6666666666667L16.000000000000004,260L14.666666666666666,263.3333333333333L13.333333333333334,266.6666666666667L12.000000000000002,270L10.666666666666668,273.3333333333333L9.333333333333334,276.6666666666667L8.000000000000002,280L6.666666666666667,283.3333333333333L5.333333333333334,286.6666666666667L4.000000000000001,290L2.666666666666667,293.3333333333333L1.3333333333333335,296.6666666666667L0,300" style="fill: none; stroke: #f58518; stroke-width: 2;"></path></g></g></g><g transform="translate(0,0)"><path class="background" d="M0,0h400v300h-400Z" style="fill: none;"></path><g><g class="mark-line role-mark marks"><path d="M400,300L398.6666666666667,299.65777777777777L397.33333333333337,299.31555555555553L396.00000000000006,298.97333333333336L394.6666666666667,298.6311111111111L393.3333333333333,298.2888888888889L392.00000000000006,297.94666666666666L390.6666666666667,297.6044444444444L389.33333333333337,297.26222222222225L388.00000000000006,296.92L386.6666666666667,296.5777777777778L385.33333333333337,296.23555555555555L384.00000000000006,295.8933333333333L382.6666666666667,295.55111111111114L381.33333333333337,295.2088888888889L380,294.8666666666667L378.6666666666667,294.52444444444444L377.33333333333337,294.1822222222222L376,293.84000000000003L374.6666666666667,293.4977777777778L373.3333333333333,293.15555555555557L372,292.81333333333333L370.66666666666663,292.4711111111111L369.33333333333337,292.1288888888889L368,291.7866666666667L366.66666666666663,291.44444444444446L365.33333333333337,291.1022222222222L364,290.76L362.6666666666667,290.4177777777778L361.33333333333337,290.0755555555556L360,289.73333333333335L358.6666666666667,289.3911111111111L357.3333333333333,289.0488888888889L356.00000000000006,288.7066666666667L354.6666666666667,288.3644444444445L353.3333333333333,288.02222222222224L352.00000000000006,287.68L350.6666666666667,287.3377777777778L349.33333333333337,286.9955555555556L348,286.65333333333336L346.6666666666667,286.31111111111113L345.33333333333337,285.9688888888889L344,285.62666666666667L342.66666666666674,285.02370370370386L341.33333333333337,282.85629629629636L340,280.6888888888889L338.66666666666674,278.5214814814816L337.33333333333337,276.35407407407416L336.00000000000006,274.1866666666668L334.6666666666667,272.01925925925934L333.33333333333337,269.8518518518519L332,267.6844444444446L330.6666666666667,265.5170370370371L329.33333333333337,263.34962962962976L328,261.1822222222223L326.6666666666667,259.0148148148149L325.3333333333333,256.8474074074075L324,254.6800000000001L322.6666666666667,252.51259259259274L321.3333333333333,250.3451851851853L320,248.17777777777783L318.6666666666667,246.01037037037048L317.3333333333333,243.84296296296304L316.00000000000006,241.67555555555566L314.6666666666667,239.50814814814825L313.3333333333333,237.3407407407408L312,235.17333333333346L310.6666666666667,233.00592592592602L309.33333333333337,230.83851851851864L308,228.6711111111112L306.6666666666667,226.50370370370376L305.33333333333337,224.33629629629638L304,222.16888888888894L302.6666666666667,220.00148148148162L301.33333333333337,217.83407407407418L300,215.66666666666674L298.6666666666667,213.49925925925933L297.33333333333337,211.33185185185192L296.00000000000006,209.16444444444454L294.6666666666667,206.9970370370371L293.3333333333333,204.82962962962966L292.00000000000006,202.66222222222234L290.6666666666667,200.4948148148149L289.33333333333337,198.32740740740755L288.00000000000006,196.16000000000008L286.6666666666667,193.99259259259264L285.33333333333337,191.82518518518526L284.00000000000006,189.65777777777782L282.6666666666667,187.4903703703705L281.33333333333337,185.32296296296306L280,183.15555555555562L278.6666666666667,180.98814814814827L277.33333333333337,178.8207407407408L276,176.65333333333342L274.6666666666667,174.48592592592598L273.3333333333333,172.31851851851854L272,170.15111111111122L270.66666666666663,167.98370370370378L269.33333333333337,165.8162962962964L268,163.648888888889L266.66666666666663,161.48148148148155L265.33333333333337,159.31407407407417L264,157.14666666666673L262.6666666666667,154.97925925925938L261.33333333333337,152.81185185185194L260,150.6444444444445L258.6666666666667,148.47703703703712L257.3333333333333,146.3096296296297L256.00000000000006,144.14222222222236L254.66666666666669,141.9748148148149L253.33333333333331,139.80740740740745L252.00000000000006,137.6400000000001L250.66666666666669,135.47259259259263L249.33333333333331,133.30518518518522L248,131.13777777777784L246.66666666666669,128.97037037037043L245.33333333333337,126.80296296296305L244,124.63555555555564L242.66666666666669,122.46814814814817L241.33333333333334,120.30074074074082L240,118.13333333333335L238.6666666666667,115.96592592592603L237.33333333333334,113.79851851851859L236,111.63111111111112L234.66666666666666,109.4637037037038L233.33333333333334,107.29629629629633L232.00000000000003,105.12888888888895L230.66666666666666,102.96148148148154L229.33333333333334,100.7940740740741L228.00000000000003,98.62666666666675L226.66666666666666,96.45925925925928L225.33333333333334,94.29185185185196L224.00000000000003,92.12444444444449L222.66666666666666,89.95703703703708L221.33333333333334,87.78962962962967L220.00000000000003,85.62222222222226L218.66666666666669,83.45481481481491L217.33333333333334,81.28740740740747L215.99999999999997,79.12000000000003L214.66666666666669,76.95259259259262L213.33333333333334,74.78518518518524L212,72.61777777777783L210.66666666666669,70.45037037037042L209.33333333333331,68.28296296296301L208,66.11555555555563L206.66666666666669,63.94814814814819L205.33333333333331,61.78074074074081L204,59.61333333333343L202.66666666666669,57.44592592592599L201.33333333333337,55.27851851851858L200,53.11111111111114L198.66666666666669,50.94370370370373L197.33333333333334,48.77629629629635L196.00000000000003,46.60888888888894L194.66666666666669,44.44148148148156L193.33333333333334,42.27407407407412L192.00000000000003,40.10666666666668L190.66666666666669,37.9392592592593L189.33333333333334,35.77185185185192L188,33.60444444444448L186.66666666666666,31.4370370370371L185.33333333333331,29.269629629629662L184,27.10222222222228L182.66666666666669,24.9348148148149L181.33333333333334,22.76740740740746L180,20.600000000000023L178.66666666666666,18.43259259259264L177.33333333333334,16.265185185185203L176.00000000000003,14.097777777777821L174.66666666666669,11.93037037037044L173.33333333333334,9.762962962963002L172,7.59555555555562L170.66666666666669,7.970370370370347L169.33333333333337,10.251851851851825L168.00000000000003,12.533333333333246L166.66666666666669,14.814814814814838L165.33333333333334,17.09629629629626L164,19.377777777777737L162.66666666666666,21.659259259259215L161.33333333333334,23.940740740740694L160,26.22222222222223L158.66666666666666,28.503703703703707L157.33333333333334,30.785185185185185L156,33.06666666666666L154.66666666666669,35.34814814814814L153.33333333333334,37.62962962962962L152,39.9111111111111L150.66666666666669,42.192592592592575L149.33333333333334,44.474074074074025L148.00000000000003,46.7555555555555L146.66666666666666,49.03703703703701L145.33333333333334,51.318518518518516L144.00000000000003,53.599999999999994L142.66666666666669,55.88148148148147L141.33333333333334,58.16296296296295L140,60.44444444444446L138.66666666666669,62.72592592592591L137.33333333333334,65.00740740740738L136,67.28888888888886L134.66666666666669,69.57037037037031L133.33333333333331,71.85185185185188L132,74.13333333333333L130.66666666666669,76.4148148148148L129.33333333333334,78.69629629629625L128.00000000000003,80.97777777777773L126.66666666666666,83.25925925925924L125.33333333333334,85.54074074074072L124,87.8222222222222L122.66666666666669,90.1037037037037L121.33333333333334,92.38518518518521L120,94.66666666666669L118.66666666666667,96.94814814814816L117.33333333333333,99.22962962962961L116.00000000000001,101.51111111111106L114.66666666666667,103.79259259259257L113.33333333333333,106.07407407407405L112.00000000000001,108.35555555555555L110.66666666666667,110.63703703703703L109.33333333333334,112.91851851851848L107.99999999999999,115.19999999999999L106.66666666666667,117.48148148148147L105.33333333333334,119.76296296296294L104,122.04444444444442L102.66666666666666,124.3259259259259L101.33333333333334,126.60740740740741L100,128.8888888888889L98.66666666666667,131.1703703703704L97.33333333333334,133.4518518518518L96.00000000000001,135.73333333333332L94.66666666666667,138.0148148148148L93.33333333333333,140.29629629629628L92,142.57777777777775L90.66666666666667,144.85925925925926L89.33333333333333,147.14074074074074L88.00000000000001,149.4222222222222L86.66666666666667,151.7037037037037L85.33333333333334,153.98518518518517L84.00000000000001,156.26666666666662L82.66666666666667,158.54814814814813L81.33333333333333,160.8296296296296L80,163.11111111111111L78.66666666666667,165.3925925925926L77.33333333333334,167.67407407407407L76,169.95555555555555L74.66666666666667,172.237037037037L73.33333333333333,174.5185185185185L72.00000000000001,176.8L70.66666666666667,179.0814814814815L69.33333333333334,181.36296296296297L68,183.64444444444445L66.66666666666666,185.92592592592592L65.33333333333334,188.2074074074074L64.00000000000001,190.48888888888888L62.66666666666667,192.77037037037036L61.33333333333334,195.05185185185184L60,197.33333333333334L58.666666666666664,199.6148148148148L57.333333333333336,201.89629629629627L56.00000000000001,204.17777777777778L54.66666666666667,206.45925925925923L53.333333333333336,208.74074074074073L52,211.0222222222222L50.66666666666667,213.30370370370372L49.333333333333336,215.5851851851852L48.00000000000001,217.86666666666667L46.666666666666664,220.14814814814815L45.333333333333336,222.42962962962963L44.00000000000001,224.7111111111111L42.66666666666667,226.9925925925926L41.333333333333336,229.27407407407406L40,231.55555555555554L38.66666666666667,233.83703703703702L37.333333333333336,236.1185185185185L36.00000000000001,238.4L34.66666666666667,240.68148148148148L33.33333333333333,242.96296296296296L32.00000000000001,245.24444444444444L30.66666666666667,247.52592592592592L29.333333333333332,249.8074074074074L28.000000000000004,252.0888888888889L26.666666666666668,254.37037037037038L25.333333333333336,256.65185185185186L24.000000000000004,258.93333333333334L22.666666666666668,261.2148148148148L21.333333333333336,263.4962962962963L20,265.77777777777777L18.666666666666668,268.05925925925925L17.333333333333336,270.3407407407407L16.000000000000004,272.6222222222222L14.666666666666666,274.9037037037037L13.333333333333334,277.18518518518516L12.000000000000002,279.46666666666664L10.666666666666668,281.7481481481482L9.333333333333334,284.02962962962965L8.000000000000002,286.31111111111113L6.666666666666667,288.5925925925926L5.333333333333334,290.8740740740741L4.000000000000001,293.15555555555557L2.666666666666667,295.43703703703704L1.3333333333333335,297.7185185185185L0,300" style="fill: none; stroke: #4c78a8; stroke-width: 2;"></path></g></g></g></g><g class="mark-group role-legend"><g transform="translate(420,0)"><path class="background" d="M0,0h98v68h-98Z" style="pointer-events: none; fill: none;"></path><g><g class="mark-group role-legend-entry"><g transform="translate(1,29)"><path class="background" d="M0,0h0v0h0Z" style="pointer-events: none; fill: none;"></path><g><g class="mark-symbol role-legend-symbol" style="pointer-events: none;"><path transform="translate(8,8)" d="M2.7386127875258306,0A2.7386127875258306,2.7386127875258306,0,1,1,-2.7386127875258306,0A2.7386127875258306,2.7386127875258306,0,1,1,2.7386127875258306,0" style="fill: none; stroke: #4c78a8; stroke-width: 1.5; opacity: 1;"></path><path transform="translate(8,29)" d="M2.7386127875258306,0A2.7386127875258306,2.7386127875258306,0,1,1,-2.7386127875258306,0A2.7386127875258306,2.7386127875258306,0,1,1,2.7386127875258306,0" style="fill: none; stroke: #f58518; stroke-width: 1.5; opacity: 1;"></path></g><g class="mark-text role-legend-label" style="pointer-events: none;"><text text-anchor="start" transform="translate(24,13)" style="font: 16px sans-serif; fill: #000; opacity: 1;">old</text><text text-anchor="start" transform="translate(24,34)" style="font: 16px sans-serif; fill: #000; opacity: 1;">new</text></g></g></g></g><g class="mark-text role-legend-title" style="pointer-events: none;"><text text-anchor="start" transform="translate(1,15)" style="font: bold 18px sans-serif; fill: #000; opacity: 1;">lr schedule</text></g></g></g></g><g class="mark-group role-axis"><g transform="translate(0.5,300.5)"><path class="background" d="M0,0h0v0h0Z" style="pointer-events: none; fill: none;"></path><g><g class="mark-rule role-axis-tick" style="pointer-events: none;"><line transform="translate(0,0)" x2="0" y2="14" style="fill: none; stroke: #888; stroke-width: 1; opacity: 1;"></line><line transform="translate(27,0)" x2="0" y2="14" style="fill: none; stroke: #888; stroke-width: 1; opacity: 1;"></line><line transform="translate(53,0)" x2="0" y2="14" style="fill: none; stroke: #888; stroke-width: 1; opacity: 1;"></line><line transform="translate(80,0)" x2="0" y2="14" style="fill: none; stroke: #888; stroke-width: 1; opacity: 1;"></line><line transform="translate(107,0)" x2="0" y2="14" style="fill: none; stroke: #888; stroke-width: 1; opacity: 1;"></line><line transform="translate(133,0)" x2="0" y2="14" style="fill: none; stroke: #888; stroke-width: 1; opacity: 1;"></line><line transform="translate(160,0)" x2="0" y2="14" style="fill: none; stroke: #888; stroke-width: 1; opacity: 1;"></line><line transform="translate(187,0)" x2="0" y2="14" style="fill: none; stroke: #888; stroke-width: 1; opacity: 1;"></line><line transform="translate(213,0)" x2="0" y2="14" style="fill: none; stroke: #888; stroke-width: 1; opacity: 1;"></line><line transform="translate(240,0)" x2="0" y2="14" style="fill: none; stroke: #888; stroke-width: 1; opacity: 1;"></line><line transform="translate(267,0)" x2="0" y2="14" style="fill: none; stroke: #888; stroke-width: 1; opacity: 1;"></line><line transform="translate(293,0)" x2="0" y2="14" style="fill: none; stroke: #888; stroke-width: 1; opacity: 1;"></line><line transform="translate(320,0)" x2="0" y2="14" style="fill: none; stroke: #888; stroke-width: 1; opacity: 1;"></line><line transform="translate(347,0)" x2="0" y2="14" style="fill: none; stroke: #888; stroke-width: 1; opacity: 1;"></line><line transform="translate(373,0)" x2="0" y2="14" style="fill: none; stroke: #888; stroke-width: 1; opacity: 1;"></line><line transform="translate(400,0)" x2="0" y2="14" style="fill: none; stroke: #888; stroke-width: 1; opacity: 1;"></line></g><g class="mark-text role-axis-label" style="pointer-events: none;"><text text-anchor="start" transform="translate(0,31)" style="font: 16px sans-serif; fill: #000; opacity: 1;">0</text><text text-anchor="middle" transform="translate(26.666666666666668,31)" style="font: 16px sans-serif; fill: #000; opacity: 0;">2</text><text text-anchor="middle" transform="translate(53.333333333333336,31)" style="font: 16px sans-serif; fill: #000; opacity: 1;">4</text><text text-anchor="middle" transform="translate(80,31)" style="font: 16px sans-serif; fill: #000; opacity: 0;">6</text><text text-anchor="middle" transform="translate(106.66666666666667,31)" style="font: 16px sans-serif; fill: #000; opacity: 1;">8</text><text text-anchor="middle" transform="translate(133.33333333333331,31)" style="font: 16px sans-serif; fill: #000; opacity: 0;">10</text><text text-anchor="middle" transform="translate(160,31)" style="font: 16px sans-serif; fill: #000; opacity: 1;">12</text><text text-anchor="middle" transform="translate(186.66666666666666,31)" style="font: 16px sans-serif; fill: #000; opacity: 0;">14</text><text text-anchor="middle" transform="translate(213.33333333333334,31)" style="font: 16px sans-serif; fill: #000; opacity: 1;">16</text><text text-anchor="middle" transform="translate(240,31)" style="font: 16px sans-serif; fill: #000; opacity: 0;">18</text><text text-anchor="middle" transform="translate(266.66666666666663,31)" style="font: 16px sans-serif; fill: #000; opacity: 1;">20</text><text text-anchor="middle" transform="translate(293.3333333333333,31)" style="font: 16px sans-serif; fill: #000; opacity: 0;">22</text><text text-anchor="middle" transform="translate(320,31)" style="font: 16px sans-serif; fill: #000; opacity: 1;">24</text><text text-anchor="middle" transform="translate(346.6666666666667,31)" style="font: 16px sans-serif; fill: #000; opacity: 0;">26</text><text text-anchor="middle" transform="translate(373.3333333333333,31)" style="font: 16px sans-serif; fill: #000; opacity: 1;">28</text><text text-anchor="end" transform="translate(400,31)" style="font: 16px sans-serif; fill: #000; opacity: 0;">30</text></g><g class="mark-rule role-axis-domain" style="pointer-events: none;"><line transform="translate(0,0)" x2="400" y2="0" style="fill: none; stroke: #888; stroke-width: 1; opacity: 1;"></line></g><g class="mark-text role-axis-title" style="pointer-events: none;"><text text-anchor="middle" transform="translate(200,59)" style="font: bold 18px sans-serif; fill: #000; opacity: 1;">epoch</text></g></g></g></g><g class="mark-group role-axis"><g transform="translate(0.5,0.5)"><path class="background" d="M0,0h0v0h0Z" style="pointer-events: none; fill: none;"></path><g><g class="mark-rule role-axis-tick" style="pointer-events: none;"><line transform="translate(0,300)" x2="-14" y2="0" style="fill: none; stroke: #888; stroke-width: 1; opacity: 1;"></line><line transform="translate(0,267)" x2="-14" y2="0" style="fill: none; stroke: #888; stroke-width: 1; opacity: 1;"></line><line transform="translate(0,233)" x2="-14" y2="0" style="fill: none; stroke: #888; stroke-width: 1; opacity: 1;"></line><line transform="translate(0,200)" x2="-14" y2="0" style="fill: none; stroke: #888; stroke-width: 1; opacity: 1;"></line><line transform="translate(0,167)" x2="-14" y2="0" style="fill: none; stroke: #888; stroke-width: 1; opacity: 1;"></line><line transform="translate(0,133)" x2="-14" y2="0" style="fill: none; stroke: #888; stroke-width: 1; opacity: 1;"></line><line transform="translate(0,100)" x2="-14" y2="0" style="fill: none; stroke: #888; stroke-width: 1; opacity: 1;"></line><line transform="translate(0,67)" x2="-14" y2="0" style="fill: none; stroke: #888; stroke-width: 1; opacity: 1;"></line><line transform="translate(0,33)" x2="-14" y2="0" style="fill: none; stroke: #888; stroke-width: 1; opacity: 1;"></line><line transform="translate(0,0)" x2="-14" y2="0" style="fill: none; stroke: #888; stroke-width: 1; opacity: 1;"></line></g><g class="mark-text role-axis-label" style="pointer-events: none;"><text text-anchor="end" transform="translate(-18,305)" style="font: 16px sans-serif; fill: #000; opacity: 1;">0.00</text><text text-anchor="end" transform="translate(-18,271.6666666666667)" style="font: 16px sans-serif; fill: #000; opacity: 1;">0.05</text><text text-anchor="end" transform="translate(-18,238.33333333333331)" style="font: 16px sans-serif; fill: #000; opacity: 1;">0.10</text><text text-anchor="end" transform="translate(-18,205)" style="font: 16px sans-serif; fill: #000; opacity: 1;">0.15</text><text text-anchor="end" transform="translate(-18,171.66666666666666)" style="font: 16px sans-serif; fill: #000; opacity: 1;">0.20</text><text text-anchor="end" transform="translate(-18,138.33333333333331)" style="font: 16px sans-serif; fill: #000; opacity: 1;">0.25</text><text text-anchor="end" transform="translate(-18,105)" style="font: 16px sans-serif; fill: #000; opacity: 1;">0.30</text><text text-anchor="end" transform="translate(-18,71.66666666666669)" style="font: 16px sans-serif; fill: #000; opacity: 1;">0.35</text><text text-anchor="end" transform="translate(-18,38.333333333333314)" style="font: 16px sans-serif; fill: #000; opacity: 1;">0.40</text><text text-anchor="end" transform="translate(-18,5)" style="font: 16px sans-serif; fill: #000; opacity: 1;">0.45</text></g><g class="mark-rule role-axis-domain" style="pointer-events: none;"><line transform="translate(0,300)" x2="0" y2="-300" style="fill: none; stroke: #888; stroke-width: 1; opacity: 1;"></line></g><g class="mark-text role-axis-title" style="pointer-events: none;"><text text-anchor="middle" transform="translate(-60.140625,150) rotate(-90) translate(0,-4)" style="font: bold 18px sans-serif; fill: #000; opacity: 1;">learning rate</text></g></g></g></g></g></g></g></g></svg> 