<?xml version="1.0" encoding="UTF-8"?> <svg xmlns="http://www.w3.org/2000/svg" xmlns:xlink="http://www.w3.org/1999/xlink" class="marks" width="616" height="162" viewBox="0 0 616 162"><g transform="translate(90,8)"><g class="mark-group role-frame root"><g transform="translate(0,0)"><path class="background" d="M0.5,0.5h400v84h-400Z" style="fill: none; stroke: #ddd;"></path><g><g class="mark-group role-axis"><g transform="translate(0.5,84.5)"><path class="background" d="M0,0h0v0h0Z" style="pointer-events: none; fill: none;"></path><g><g class="mark-rule role-axis-grid" style="pointer-events: none;"><line transform="translate(0,0)" x2="0" y2="-84" style="fill: none; stroke: #ddd; stroke-width: 1; opacity: 1;"></line><line transform="translate(44,0)" x2="0" y2="-84" style="fill: none; stroke: #ddd; stroke-width: 1; opacity: 1;"></line><line transform="translate(89,0)" x2="0" y2="-84" style="fill: none; stroke: #ddd; stroke-width: 1; opacity: 1;"></line><line transform="translate(133,0)" x2="0" y2="-84" style="fill: none; stroke: #ddd; stroke-width: 1; opacity: 1;"></line><line transform="translate(178,0)" x2="0" y2="-84" style="fill: none; stroke: #ddd; stroke-width: 1; opacity: 1;"></line><line transform="translate(222,0)" x2="0" y2="-84" style="fill: none; stroke: #ddd; stroke-width: 1; opacity: 1;"></line><line transform="translate(267,0)" x2="0" y2="-84" style="fill: none; stroke: #ddd; stroke-width: 1; opacity: 1;"></line><line transform="translate(311,0)" x2="0" y2="-84" style="fill: none; stroke: #ddd; stroke-width: 1; opacity: 1;"></line><line transform="translate(356,0)" x2="0" y2="-84" style="fill: none; stroke: #ddd; stroke-width: 1; opacity: 1;"></line><line transform="translate(400,0)" x2="0" y2="-84" style="fill: none; stroke: #ddd; stroke-width: 1; opacity: 1;"></line></g></g></g></g><g class="mark-rect role-mark marks"><path d="M0,1.0500000000000043h224.44444444444446v18.900000000000002h-224.44444444444446Z" style="fill: #4c78a8;"></path><path d="M0,22.050000000000004h194.22222222222223v18.900000000000002h-194.22222222222223Z" style="fill: #4c78a8;"></path><path d="M0,43.050000000000004h178.66666666666663v18.900000000000002h-178.66666666666663Z" style="fill: #4c78a8;"></path><path d="M0,64.05000000000001h167.1111111111111v18.900000000000002h-167.1111111111111Z" style="fill: #4c78a8;"></path><path d="M224.44444444444446,1.0500000000000043h48.88888888888886v18.900000000000002h-48.88888888888886Z" style="fill: #f58518;"></path><path d="M194.22222222222223,22.050000000000004h39.55555555555554v18.900000000000002h-39.55555555555554Z" style="fill: #f58518;"></path><path d="M178.66666666666663,43.050000000000004h31.111111111111114v18.900000000000002h-31.111111111111114Z" style="fill: #f58518;"></path><path d="M167.1111111111111,64.05000000000001h27.55555555555557v18.900000000000002h-27.55555555555557Z" style="fill: #f58518;"></path><path d="M273.3333333333333,1.0500000000000043h17.77777777777783v18.900000000000002h-17.77777777777783Z" style="fill: #e45756;"></path><path d="M233.77777777777777,22.050000000000004h16.888888888888857v18.900000000000002h-16.888888888888857Z" style="fill: #e45756;"></path><path d="M209.77777777777774,43.050000000000004h16.00000000000003v18.900000000000002h-16.00000000000003Z" style="fill: #e45756;"></path><path d="M194.66666666666666,64.05000000000001h15.555555555555571v18.900000000000002h-15.555555555555571Z" style="fill: #e45756;"></path><path d="M291.11111111111114,1.0500000000000043h11.999999999999943v18.900000000000002h-11.999999999999943Z" style="fill: #72b7b2;"></path><path d="M250.66666666666663,22.050000000000004h5.777777777777828v18.900000000000002h-5.777777777777828Z" style="fill: #72b7b2;"></path><path d="M231.99999999999997,43.050000000000004h3.1111111111111143v18.900000000000002h-3.1111111111111143Z" style="fill: #72b7b2;"></path><path d="M216.88888888888886,64.05000000000001h1.7777777777777999v18.900000000000002h-1.7777777777777999Z" style="fill: #72b7b2;"></path><path d="M303.1111111111111,1.0500000000000043h6.2222222222222285v18.900000000000002h-6.2222222222222285Z" style="fill: #54a24b;"></path><path d="M256.44444444444446,22.050000000000004h5.777777777777715v18.900000000000002h-5.777777777777715Z" style="fill: #54a24b;"></path><path d="M225.77777777777777,43.050000000000004h6.2222222222222v18.900000000000002h-6.2222222222222Z" style="fill: #54a24b;"></path><path d="M210.22222222222223,64.05000000000001h6.666666666666629v18.900000000000002h-6.666666666666629Z" style="fill: #54a24b;"></path></g><g class="mark-group role-legend"><g transform="translate(418,0)"><path class="background" d="M0,0h103v131h-103Z" style="pointer-events: none; fill: none;"></path><g><g class="mark-group role-legend-entry"><g transform="translate(1,29)"><path class="background" d="M0,0h0v0h0Z" style="pointer-events: none; fill: none;"></path><g><g class="mark-symbol role-legend-symbol" style="pointer-events: none;"><path transform="translate(8,8)" d="M-2.7386127875258306,-2.7386127875258306h5.477225575051661v5.477225575051661h-5.477225575051661Z" style="fill: #4c78a8; stroke-width: 1.5; opacity: 1;"></path><path transform="translate(8,29)" d="M-2.7386127875258306,-2.7386127875258306h5.477225575051661v5.477225575051661h-5.477225575051661Z" style="fill: #f58518; stroke-width: 1.5; opacity: 1;"></path><path transform="translate(8,50)" d="M-2.7386127875258306,-2.7386127875258306h5.477225575051661v5.477225575051661h-5.477225575051661Z" style="fill: #e45756; stroke-width: 1.5; opacity: 1;"></path><path transform="translate(8,71)" d="M-2.7386127875258306,-2.7386127875258306h5.477225575051661v5.477225575051661h-5.477225575051661Z" style="fill: #72b7b2; stroke-width: 1.5; opacity: 1;"></path><path transform="translate(8,92)" d="M-2.7386127875258306,-2.7386127875258306h5.477225575051661v5.477225575051661h-5.477225575051661Z" style="fill: #54a24b; stroke-width: 1.5; opacity: 1;"></path></g><g class="mark-text role-legend-label" style="pointer-events: none;"><text text-anchor="start" transform="translate(24,13)" style="font: 16px sans-serif; fill: #000; opacity: 1;">conv</text><text text-anchor="start" transform="translate(24,34)" style="font: 16px sans-serif; fill: #000; opacity: 1;">batchnorm</text><text text-anchor="start" transform="translate(24,55)" style="font: 16px sans-serif; fill: #000; opacity: 1;">relu</text><text text-anchor="start" transform="translate(24,76)" style="font: 16px sans-serif; fill: #000; opacity: 1;">optimizer</text><text text-anchor="start" transform="translate(24,97)" style="font: 16px sans-serif; fill: #000; opacity: 1;">dataloader</text></g></g></g></g><g class="mark-text role-legend-title" style="pointer-events: none;"><text text-anchor="start" transform="translate(1,15)" style="font: bold 18px sans-serif; fill: #000; opacity: 1;">tag</text></g></g></g></g><g class="mark-group role-axis"><g transform="translate(0.5,84.5)"><path class="background" d="M0,0h0v0h0Z" style="pointer-events: none; fill: none;"></path><g><g class="mark-rule role-axis-tick" style="pointer-events: none;"><line transform="translate(0,0)" x2="0" y2="14" style="fill: none; stroke: #888; stroke-width: 1; opacity: 1;"></line><line transform="translate(44,0)" x2="0" y2="14" style="fill: none; stroke: #888; stroke-width: 1; opacity: 1;"></line><line transform="translate(89,0)" x2="0" y2="14" style="fill: none; stroke: #888; stroke-width: 1; opacity: 1;"></line><line transform="translate(133,0)" x2="0" y2="14" style="fill: none; stroke: #888; stroke-width: 1; opacity: 1;"></line><line transform="translate(178,0)" x2="0" y2="14" style="fill: none; stroke: #888; stroke-width: 1; opacity: 1;"></line><line transform="translate(222,0)" x2="0" y2="14" style="fill: none; stroke: #888; stroke-width: 1; opacity: 1;"></line><line transform="translate(267,0)" x2="0" y2="14" style="fill: none; stroke: #888; stroke-width: 1; opacity: 1;"></line><line transform="translate(311,0)" x2="0" y2="14" style="fill: none; stroke: #888; stroke-width: 1; opacity: 1;"></line><line transform="translate(356,0)" x2="0" y2="14" style="fill: none; stroke: #888; stroke-width: 1; opacity: 1;"></line><line transform="translate(400,0)" x2="0" y2="14" style="fill: none; stroke: #888; stroke-width: 1; opacity: 1;"></line></g><g class="mark-text role-axis-label" style="pointer-events: none;"><text text-anchor="start" transform="translate(0,31)" style="font: 16px sans-serif; fill: #000; opacity: 1;">0</text><text text-anchor="middle" transform="translate(44.44444444444444,31)" style="font: 16px sans-serif; fill: #000; opacity: 1;">1</text><text text-anchor="middle" transform="translate(88.88888888888889,31)" style="font: 16px sans-serif; fill: #000; opacity: 1;">2</text><text text-anchor="middle" transform="translate(133.33333333333331,31)" style="font: 16px sans-serif; fill: #000; opacity: 1;">3</text><text text-anchor="middle" transform="translate(177.77777777777777,31)" style="font: 16px sans-serif; fill: #000; opacity: 1;">4</text><text text-anchor="middle" transform="translate(222.22222222222223,31)" style="font: 16px sans-serif; fill: #000; opacity: 1;">5</text><text text-anchor="middle" transform="translate(266.66666666666663,31)" style="font: 16px sans-serif; fill: #000; opacity: 1;">6</text><text text-anchor="middle" transform="translate(311.11111111111114,31)" style="font: 16px sans-serif; fill: #000; opacity: 1;">7</text><text text-anchor="middle" transform="translate(355.55555555555554,31)" style="font: 16px sans-serif; fill: #000; opacity: 1;">8</text><text text-anchor="end" transform="translate(400,31)" style="font: 16px sans-serif; fill: #000; opacity: 1;">9</text></g><g class="mark-rule role-axis-domain" style="pointer-events: none;"><line transform="translate(0,0)" x2="400" y2="0" style="fill: none; stroke: #888; stroke-width: 1; opacity: 1;"></line></g><g class="mark-text role-axis-title" style="pointer-events: none;"><text text-anchor="middle" transform="translate(200,59)" style="font: bold 18px sans-serif; fill: #000; opacity: 1;">epoch time (s)</text></g></g></g></g><g class="mark-group role-axis"><g transform="translate(0.5,0.5)"><path class="background" d="M0,0h0v0h0Z" style="pointer-events: none; fill: none;"></path><g><g class="mark-rule role-axis-tick" style="pointer-events: none;"><line transform="translate(0,10)" x2="-14" y2="0" style="fill: none; stroke: #888; stroke-width: 1; opacity: 1;"></line><line transform="translate(0,31)" x2="-14" y2="0" style="fill: none; stroke: #888; stroke-width: 1; opacity: 1;"></line><line transform="translate(0,52)" x2="-14" y2="0" style="fill: none; stroke: #888; stroke-width: 1; opacity: 1;"></line><line transform="translate(0,73)" x2="-14" y2="0" style="fill: none; stroke: #888; stroke-width: 1; opacity: 1;"></line></g><g class="mark-text role-axis-label" style="pointer-events: none;"><text text-anchor="end" transform="translate(-18,14.500000000000005)" style="font: 16px sans-serif; fill: #000; opacity: 1;">128</text><text text-anchor="end" transform="translate(-18,35.50000000000001)" style="font: 16px sans-serif; fill: #000; opacity: 1;">256</text><text text-anchor="end" transform="translate(-18,56.50000000000001)" style="font: 16px sans-serif; fill: #000; opacity: 1;">512</text><text text-anchor="end" transform="translate(-18,77.50000000000001)" style="font: 16px sans-serif; fill: #000; opacity: 1;">1024</text></g><g class="mark-rule role-axis-domain" style="pointer-events: none;"><line transform="translate(0,0)" x2="0" y2="84" style="fill: none; stroke: #888; stroke-width: 1; opacity: 1;"></line></g><g class="mark-text role-axis-title" style="pointer-events: none;"><text text-anchor="middle" transform="translate(-64.59375,42) rotate(-90) translate(0,-4)" style="font: bold 18px sans-serif; fill: #000; opacity: 1;">batch size</text></g></g></g></g></g></g></g></g></svg> 